#!OML:ASF X:\für Bonn\!DataBase\2005_08_10_Bjorn_Final\c3d\bjorn.ASF
:FULLY-SPECIFIED
:DEGREES
119
root -1.31916 12.3777 16.4419 -364.388 -192.327 -734.579
lowerback 55.5368 -16.3361 9.93384
upperback 20.9633 -1.25157 5.52859
thorax 2.72 3.89212 2.53241
lowerneck -7.30864 -1.4505 -5.73498
upperneck 11.3476 -0.298527 -4.77161
head 4.63486 -0.524155 -0.545698
rclavicle 1.39944e-013 1.52567e-013
rhumerus -168.287 -133.693 118.652
rradius 17.5858
rwrist 5.24301
rhand -9.03179 7.8829
rfingers 7.12502
rthumb 16.9158 -21.4004
lclavicle 1.39944e-013 1.52567e-013
lhumerus 19.3484 -30.694 18.5117
lradius 68.9491
lwrist 2.36282
lhand -24.8172 -369.155
lfingers 7.12502
lthumb 1.68813 20.8177
rfemur -73.9655 -18.2224 -9.32582
rtibia 105.606
rfoot -24.1278 24.2995
rtoes -20.092
lfemur 115.359 169.077 146.199
ltibia 114.642
lfoot -32.4569 12.0653
ltoes -36.8161
120
root -1.31332 12.2434 16.4317 -364.873 -192.465 -734.61
lowerback 55.4945 -16.4611 10.0744
upperback 20.9069 -1.33695 5.61291
thorax 2.66925 3.85436 2.59695
lowerneck -7.20039 -1.29755 -5.90321
upperneck 11.6969 0.018631 -5.13855
head 4.72698 -0.396365 -0.612324
rclavicle -1.04958e-013 -1.34975e-013
rhumerus -169.421 -133.612 119.402
rradius 17.664
rwrist 4.4604
rhand -8.69318 7.72642
rfingers 7.12502
rthumb 17.2418 -21.5287
lclavicle -1.04958e-013 -1.34975e-013
lhumerus 18.9393 -31.1225 18.3799
lradius 68.7054
lwrist 2.27799
lhand -24.8648 -369.136
lfingers 7.12502
lthumb 1.64214 20.8375
rfemur -74.4177 -18.6328 -9.38128
rtibia 106.702
rfoot -24.3032 24.7998
rtoes -19.8727
lfemur 115.069 168.81 146.485
ltibia 115.959
lfoot -32.3596 11.8399
ltoes -37.4696
121
root -1.30469 12.1092 16.422 -365.359 -192.61 -734.603
lowerback 55.4306 -16.5955 10.261
upperback 20.8669 -1.40962 5.66763
thorax 2.64064 3.83377 2.60767
lowerneck -7.12688 -1.16161 -6.00403
upperneck 12.063 0.312812 -5.51056
head 4.83085 -0.279464 -0.693011
rclavicle 1.145e-013 4.03533e-014
rhumerus -170.498 -133.435 120.072
rradius 17.6446
rwrist 3.90606
rhand -8.51825 7.54622
rfingers 7.12502
rthumb 17.4101 -21.6941
lclavicle 1.145e-013 4.03533e-014
lhumerus 18.5998 -31.5765 18.166
lradius 68.4438
lwrist 2.26358
lhand -25.0464 -369.135
lfingers 7.12502
lthumb 1.46677 20.8398
rfemur -74.8712 -19.0312 -9.38401
rtibia 107.798
rfoot -24.5232 25.2366
rtoes -19.8288
lfemur 114.781 168.468 146.843
ltibia 117.269
lfoot -32.2601 11.4771
ltoes -38.0389
122
root -1.29453 11.9722 16.4123 -365.857 -192.723 -734.611
lowerback 55.3034 -16.7113 10.3958
upperback 20.8868 -1.4754 5.76934
thorax 2.67987 3.81651 2.68997
lowerneck -7.17046 -1.05896 -6.19508
upperneck 12.5039 0.592746 -5.85084
head 4.97953 -0.176418 -0.750858
rclavicle 2.03555e-013 9.72057e-014
rhumerus -171.443 -133.087 120.682
rradius 17.5737
rwrist 3.66855
rhand -8.39031 7.46246
rfingers 7.12502
rthumb 17.5332 -21.7669
lclavicle 2.03555e-013 9.72057e-014
lhumerus 18.2345 -32.0251 18.0324
lradius 68.2342
lwrist 2.34576
lhand -25.3232 -369.131
lfingers 7.12502
lthumb 1.19938 20.8452
rfemur -75.3184 -19.5039 -9.39523
rtibia 108.903
rfoot -24.7591 25.6762
rtoes -19.8609
lfemur 114.505 168.129 147.215
ltibia 118.578
lfoot -32.1598 11.0368
ltoes -38.4832
123
root -1.2833 11.8358 16.4027 -366.368 -192.834 -734.596
lowerback 55.2024 -16.841 10.571
upperback 20.862 -1.54937 5.83852
thorax 2.66987 3.79646 2.72149
lowerneck -7.09084 -0.940673 -6.2884
upperneck 12.8664 0.872687 -6.22645
head 5.08364 -0.0672447 -0.83452
rclavicle 4.45278e-014 2.90226e-014
rhumerus -172.434 -132.73 121.292
rradius 17.4504
rwrist 3.47614
rhand -8.33767 7.33164
rfingers 7.12502
rthumb 17.5839 -21.8932
lclavicle 4.45278e-014 2.90226e-014
lhumerus 17.8764 -32.576 17.8512
lradius 68.0267
lwrist 2.35795
lhand -25.6802 -369.047
lfingers 7.12502
lthumb 0.854602 20.9308
rfemur -75.7463 -19.9797 -9.39161
rtibia 110.003
rfoot -24.9447 26.1827
rtoes -19.7131
lfemur 114.258 167.741 147.632
ltibia 119.873
lfoot -32.0363 10.6231
ltoes -39.0815
124
root -1.26959 11.6986 16.3921 -366.899 -192.96 -734.588
lowerback 55.0684 -16.9506 10.7049
upperback 20.887 -1.61542 5.90804
thorax 2.71521 3.78428 2.76912
lowerneck -7.06933 -0.82236 -6.42244
upperneck 13.2208 1.15599 -6.54915
head 5.196 0.0421581 -0.895145
rclavicle 6.36111e-015 -8.36883e-014
rhumerus -173.321 -132.218 121.831
rradius 17.3178
rwrist 3.39712
rhand -8.21844 7.19772
rfingers 7.12502
rthumb 17.6986 -22.0168
lclavicle 6.36111e-015 -8.36883e-014
lhumerus 17.6055 -33.1071 17.681
lradius 67.758
lwrist 2.37279
lhand -26.0469 -368.981
lfingers 7.12502
lthumb 0.500482 20.9978
rfemur -76.1636 -20.4741 -9.38166
rtibia 111.103
rfoot -25.1878 26.6644
rtoes -19.7049
lfemur 114.036 167.261 148.073
ltibia 121.159
lfoot -31.877 10.282
ltoes -39.8397
125
root -1.25437 11.5622 16.3822 -367.448 -193.08 -734.597
lowerback 54.9602 -17.0425 10.7735
upperback 20.901 -1.69373 5.98999
thorax 2.74342 3.75712 2.85966
lowerneck -7.02826 -0.678825 -6.5613
upperneck 13.5577 1.47951 -6.9035
head 5.30119 0.169398 -0.961985
rclavicle -1.49486e-013 -1.27819e-013
rhumerus -174.211 -131.805 122.393
rradius 17.2143
rwrist 3.24689
rhand -8.098 7.0613
rfingers 7.12502
rthumb 17.8145 -22.1427
lclavicle -1.49486e-013 -1.27819e-013
lhumerus 17.2017 -33.6463 17.6407
lradius 67.525
lwrist 2.35522
lhand -26.3451 -369.004
lfingers 7.12502
lthumb 0.212473 20.9754
rfemur -76.5742 -20.9846 -9.38746
rtibia 112.199
rfoot -25.4075 27.1509
rtoes -19.6418
lfemur 113.865 166.749 148.536
ltibia 122.411
lfoot -31.7569 9.84542
ltoes -40.5433
126
root -1.23661 11.423 16.3734 -368.01 -193.165 -734.603
lowerback 54.8629 -17.1469 10.833
upperback 20.8907 -1.79595 6.06924
thorax 2.74379 3.71529 2.95797
lowerneck -6.97451 -0.509596 -6.77491
upperneck 13.9082 1.83515 -7.16784
head 5.40874 0.311867 -0.986533
rclavicle 1.04958e-013 -4.49253e-014
rhumerus -175.067 -131.354 122.938
rradius 17.0978
rwrist 3.03847
rhand -7.87294 6.87352
rfingers 7.12502
rthumb 18.0311 -22.3107
lclavicle 1.04958e-013 -4.49253e-014
lhumerus 16.6963 -34.2665 17.6821
lradius 67.2953
lwrist 2.01733
lhand -26.6512 -368.946
lfingers 7.12502
lthumb -0.0831701 21.0333
rfemur -76.9735 -21.5783 -9.38018
rtibia 113.311
rfoot -25.6777 27.6273
rtoes -19.6832
lfemur 113.699 166.178 149.027
ltibia 123.666
lfoot -31.576 9.53351
ltoes -41.489
127
root -1.21775 11.2851 16.3651 -368.588 -193.238 -734.599
lowerback 54.7743 -17.2595 10.8637
upperback 20.892 -1.91381 6.14879
thorax 2.75608 3.66669 3.07506
lowerneck -6.95021 -0.330582 -7.00595
upperneck 14.2394 2.20991 -7.43504
head 5.51626 0.46129 -1.00763
rclavicle 6.04305e-014 4.73108e-014
rhumerus -175.919 -130.95 123.467
rradius 17.0397
rwrist 2.82469
rhand -7.58127 6.73661
rfingers 7.12502
rthumb 18.3117 -22.4215
lclavicle 6.04305e-014 4.73108e-014
lhumerus 16.0479 -34.8155 17.9106
lradius 67.0812
lwrist 1.57304
lhand -26.764 -369.07
lfingers 7.12502
lthumb -0.192131 20.91
rfemur -77.3404 -22.2066 -9.37568
rtibia 114.416
rfoot -25.9617 28.114
rtoes -19.8081
lfemur 113.592 165.595 149.58
ltibia 124.887
lfoot -31.4359 9.05749
ltoes -42.2154
128
root -1.19707 11.1458 16.3554 -369.174 -193.331 -734.607
lowerback 54.6421 -17.3571 10.8855
upperback 20.9179 -2.03301 6.20448
thorax 2.79748 3.62121 3.16933
lowerneck -6.93495 -0.153466 -7.1898
upperneck 14.5619 2.57322 -7.68168
head 5.62285 0.606883 -1.03043
rclavicle 9.54166e-014 1.61016e-013
rhumerus -176.807 -130.661 124.003
rradius 17.0527
rwrist 2.42532
rhand -7.36727 6.49818
rfingers 7.12502
rthumb 18.5176 -22.6404
lclavicle 9.54166e-014 1.61016e-013
lhumerus 15.338 -35.2912 18.3085
lradius 66.8332
lwrist 0.991824
lhand -26.8462 -369.145
lfingers 7.12502
lthumb -0.271531 20.8341
rfemur -77.7164 -22.8559 -9.37059
rtibia 115.518
rfoot -26.2045 28.6607
rtoes -19.7127
lfemur 113.512 164.908 150.146
ltibia 126.094
lfoot -31.2936 8.60005
ltoes -42.9894
129
root -1.17562 11.0059 16.346 -369.79 -193.398 -734.623
lowerback 54.5035 -17.4726 10.8883
upperback 20.9593 -2.17871 6.24164
thorax 2.85683 3.56777 3.26152
lowerneck -6.92509 0.0248743 -7.35458
upperneck 14.8367 2.93369 -7.93983
head 5.71627 0.751978 -1.0598
rclavicle 1.78111e-013 1.22054e-013
rhumerus -177.687 -130.435 124.517
rradius 17.1098
rwrist 1.95311
rhand -7.07986 6.36028
rfingers 7.12502
rthumb 18.794 -22.7518
lclavicle 1.78111e-013 1.22054e-013
lhumerus 14.5809 -35.7346 18.8095
lradius 66.5715
lwrist 0.255601
lhand -26.9531 -369.106
lfingers 7.12502
lthumb -0.374836 20.8733
rfemur -78.0544 -23.5814 -9.38839
rtibia 116.619
rfoot -26.4492 29.2481
rtoes -19.6592
lfemur 113.471 164.168 150.738
ltibia 127.287
lfoot -31.1882 8.03252
ltoes -43.6209
130
root -1.15278 10.866 16.3378 -370.404 -193.476 -734.638
lowerback 54.3512 -17.5774 10.8751
upperback 21.0102 -2.32691 6.26956
thorax 2.92679 3.51283 3.3503
lowerneck -6.94752 0.196633 -7.54242
upperneck 15.1129 3.29156 -8.17956
head 5.81617 0.89393 -1.07946
rclavicle 1.11319e-013 4.6118e-014
rhumerus -178.498 -130.2 124.971
rradius 17.1467
rwrist 1.63056
rhand -6.84512 6.32443
rfingers 7.12502
rthumb 19.0198 -22.7656
lclavicle 1.11319e-013 4.6118e-014
lhumerus 13.7646 -36.1535 19.3925
lradius 66.3522
lwrist -0.430467
lhand -27.0094 -369.084
lfingers 7.12502
lthumb -0.429213 20.8952
rfemur -78.4262 -24.3261 -9.37469
rtibia 117.719
rfoot -26.7816 29.7431
rtoes -19.8358
lfemur 113.445 163.318 151.374
ltibia 128.46
lfoot -31.1178 7.26415
ltoes -43.978
131
root -1.12909 10.7248 16.3291 -371.024 -193.566 -734.655
lowerback 54.1879 -17.665 10.8059
upperback 21.0899 -2.47953 6.31044
thorax 3.02814 3.45268 3.47787
lowerneck -6.96255 0.368652 -7.78463
upperneck 15.3296 3.65087 -8.41779
head 5.89639 1.03627 -1.08955
rclavicle 9.54166e-014 4.77083e-015
rhumerus -179.092 -129.891 125.323
rradius 17.1055
rwrist 1.43196
rhand -6.57144 6.35495
rfingers 7.12502
rthumb 19.283 -22.709
lclavicle 9.54166e-014 4.77083e-015
lhumerus 12.8727 -36.5143 20.1162
lradius 66.1453
lwrist -1.03864
lhand -27.0273 -369.083
lfingers 7.12502
lthumb -0.446437 20.8959
rfemur -78.8083 -25.1225 -9.36521
rtibia 118.82
rfoot -27.0292 30.3337
rtoes -19.8755
lfemur 113.443 162.348 152.055
ltibia 129.622
lfoot -31.1155 6.27166
ltoes -44.0332
